<svg width="48" height="48" viewBox="0 0 48 48" version="1.1" xmlns="http://www.w3.org/2000/svg" xmlns:xlink="http://www.w3.org/1999/xlink">
<title>index_icon</title>
<desc>Created using Figma</desc>
<g id="Canvas" transform="translate(-404 -229)">
<clipPath id="clip-0" clip-rule="evenodd">
<path d="M 404 229L 452 229L 452 277L 404 277L 404 229Z" fill="#FFFFFF"/>
</clipPath>
<g id="index_icon" clip-path="url(#clip-0)">
<g id="Libre Franklin">
<g id="Subtract">
<use xlink:href="#path0_fill" transform="translate(426.292 248.049)" fill="#8195A8"/>
</g>
<g id="Subtract">
<use xlink:href="#path1_fill" transform="translate(413.692 241)" fill="#8195A8"/>
</g>
</g>
</g>
</g>
<defs>
<path id="path0_fill" fill-rule="evenodd" d="M 3.02917 2.92053L 1.99518 0.0015564L 12.8889 0C 13.1269 0 13.2458 0.126007 13.2458 0.377991L 13.2458 1.29425C 13.2458 1.43423 13.2249 1.55325 13.1829 1.65125C 13.1408 1.74927 13.0569 1.88925 12.9308 2.07126L 5.96417 12.7039C 5.93619 12.7599 5.92218 12.8019 5.92218 12.8299C 5.92218 12.9279 6.01318 12.9769 6.19519 12.9769L 12.7382 12.9746C 13.0182 12.9746 13.1582 13.0936 13.1582 13.3316L 13.1582 15.5291C 13.1582 15.6551 13.1162 15.7601 13.0322 15.8441C 12.9622 15.9141 12.8502 15.9491 12.6962 15.9491L 0.503998 15.9514C 0.308014 15.9514 0.175018 15.9234 0.105011 15.8674C 0.0350037 15.7974 0 15.6644 0 15.4684L 0 14.5482C 0 14.3523 0.0210266 14.2052 0.0630188 14.1072C 0.105011 14.0092 0.21701 13.8272 0.399017 13.5612C 1.53671 11.9093 2.67337 10.1548 3.81018 8.40012C 4.94748 6.64474 6.0849 4.8891 7.22369 3.23557C 7.27969 3.16556 7.30768 3.09555 7.30768 3.02554C 7.30768 2.95554 7.22369 2.92053 7.05569 2.92053L 3.02917 2.92053Z"/>
<path id="path1_fill" fill-rule="evenodd" d="M 0.0840149 15.7491C 0.153992 15.8191 0.244995 15.8541 0.357025 15.8541L 3.19211 15.8541C 3.43011 15.8541 3.58411 15.7561 3.65411 15.5601L 4.73172 12.5164C 4.77371 12.3624 4.8717 12.2854 5.02573 12.2854L 9.79288 12.2854C 9.89087 12.2854 9.95386 12.3064 9.98187 12.3484C 10.0239 12.3764 10.0659 12.4324 10.1079 12.5164L 11.1318 15.5181C 11.2018 15.7421 11.3488 15.8541 11.5728 15.8541L 13.782 15.8541C 13.884 15.7035 13.9863 15.5526 14.0884 15.402C 14.4151 14.9201 14.7398 14.4411 15.0476 13.9863L 10.2759 0.525024C 10.1359 0.175018 9.89786 0 9.56186 0L 5.90775 0C 5.73975 0 5.61374 0.0350037 5.52972 0.105011C 5.44574 0.161011 5.37573 0.27301 5.31973 0.44101L 0.0629883 15.161C 0.0209961 15.259 0 15.3571 0 15.455C 0 15.5811 0.0280151 15.679 0.0840149 15.7491ZM 9.05783 8.88327C 9.05783 9.02325 8.98785 9.09326 8.84784 9.09326L 5.94974 9.09326C 5.78174 9.09326 5.69775 9.03027 5.69775 8.90427C 5.69775 8.82025 5.71173 8.75024 5.73975 8.69424L 7.2728 4.47314C 7.30078 4.38913 7.3428 4.34714 7.3988 4.34714C 7.46878 4.34714 7.5108 4.38913 7.52481 4.47314L 9.03683 8.69424C 9.05084 8.73627 9.05783 8.79926 9.05783 8.88327Z"/>
</defs>
</svg>
