<svg width="88" height="44" viewBox="0 0 88 44" fill="none" xmlns="http://www.w3.org/2000/svg">
<g clip-path="url(#clip0)">
<path fill-rule="evenodd" clip-rule="evenodd" d="M74.1375 29.4777C74.5281 29.0871 74.5281 28.454 74.1375 28.0634L68.1036 22.0295L74.1376 15.9955C74.5281 15.6049 74.5281 14.9718 74.1376 14.5812L73.4776 13.9213C73.0871 13.5308 72.454 13.5308 72.0634 13.9213L66.0294 19.9553L59.9954 13.9213C59.6049 13.5308 58.9717 13.5308 58.5812 13.9213L57.9212 14.5813C57.5307 14.9718 57.5307 15.605 57.9212 15.9955L63.9552 22.0295L57.9213 28.0634C57.5307 28.4539 57.5307 29.0871 57.9213 29.4776L58.5812 30.1376C58.9718 30.5281 59.6049 30.5281 59.9954 30.1376L66.0294 24.1037L72.0633 30.1376C72.4539 30.5282 73.0871 30.5281 73.4776 30.1376L74.1375 29.4777Z" fill="white" fill-opacity="0.9"/>
<rect x="33.0294" y="20.5628" width="2.93333" height="22" rx="1" transform="rotate(90 33.0294 20.5628)" fill="#8F97A1"/>
<rect x="23.496" y="33.0294" width="2.93333" height="22" rx="1" transform="rotate(180 23.496 33.0294)" fill="#8F97A1"/>
</g>
<defs>
<clipPath id="clip0">
<rect width="88" height="44" fill="white"/>
</clipPath>
</defs>
</svg>
