<svg width="26" height="26" viewBox="0 0 26 26" fill="none" xmlns="http://www.w3.org/2000/svg">
<rect x="4.81821" y="10.6364" width="4.90909" height="4.90909" rx="2" fill="#8D97A4"/>
<path d="M12.1818 7C11.5537 7 10.9793 8.02072 10.5 8.5L6.55382 11.3553C5.59526 12.3138 5.59526 13.868 6.55382 14.8265L10.5 17.5C10.9793 17.9793 11.5537 19 12.1818 19V7Z" fill="#8D97A4"/>
<path fill-rule="evenodd" clip-rule="evenodd" d="M21.1818 13.0909C21.1818 15.9783 19.6861 18.5164 17.4272 19.9726L16.5355 19.081C18.5821 17.8704 19.9546 15.6409 19.9546 13.0909C19.9546 10.5409 18.5821 8.31137 16.5355 7.10083L17.4272 6.20916C19.6861 7.66538 21.1818 10.2035 21.1818 13.0909ZM18.7272 13.0909C18.7272 15.3047 17.4712 17.2251 15.633 18.1784L14.7094 17.2549C16.3469 16.5819 17.5 14.971 17.5 13.0909C17.5 11.2108 16.3469 9.59994 14.7094 8.92696L15.6329 8.00341C17.4712 8.95673 18.7272 10.8771 18.7272 13.0909ZM13.8182 14.9661V16.2605C15.2297 15.8972 16.2727 14.6158 16.2727 13.0909C16.2727 11.566 15.2297 10.2846 13.8182 9.92129V11.2157C14.5406 11.5313 15.0455 12.2521 15.0455 13.0909C15.0455 13.9297 14.5406 14.6505 13.8182 14.9661Z" fill="#8D97A4"/>
</svg>
