<svg width="30" height="30" viewBox="0 0 30 30" fill="none" xmlns="http://www.w3.org/2000/svg">
<g id="AUDIO">
<rect width="30" height="30" fill="white"/>
<path id="Union" d="M14.9677 22C14.9677 22 16.1935 22.2684 16.1935 21.3846V8.65372C16.1935 7.76991 14.9677 8.03833 14.9677 8.03833L10.2903 12.1153C10.2903 12.1153 8.12474 12.7692 7.22581 12.7692C6.32688 12.7692 6 14 6 14V16.0769C6 16.0769 6.32688 17.3077 7.22581 17.3077C8.12474 17.3077 10.2903 17.9231 10.2903 17.9231L14.9677 22Z" fill="#8D97A4"/>
<g id="Group">
<path id="Subtract" fill-rule="evenodd" clip-rule="evenodd" d="M17.4193 18.7654C17.6255 18.8001 17.8372 18.8182 18.0531 18.8182C20.1534 18.8182 21.8559 17.1087 21.8559 15C21.8559 12.8913 20.1534 11.1818 18.0531 11.1818C17.8372 11.1818 17.6255 11.1999 17.4193 11.2346V12.7709C17.6209 12.7129 17.8336 12.6818 18.0531 12.6818C19.3192 12.6818 20.3559 13.714 20.3559 15C20.3559 16.286 19.3192 17.3182 18.0531 17.3182C17.8336 17.3182 17.6209 17.2871 17.4193 17.2291V18.7654Z" fill="#8D97A4"/>
<path id="Subtract_2" fill-rule="evenodd" clip-rule="evenodd" d="M18.0531 22C21.9035 22 25.0249 18.866 25.0249 15C25.0249 11.134 21.9035 8 18.0531 8V9.5C21.0694 9.5 23.5249 11.9567 23.5249 15C23.5249 18.0433 21.0694 20.5 18.0531 20.5V22Z" fill="#8D97A4"/>
</g>
</g>
</svg>
