<svg width="120" height="30" viewBox="0 0 120 30" fill="none" xmlns="http://www.w3.org/2000/svg">
<g id="FILTER">
<g id="Group">
<path id="Vector" fill-rule="evenodd" clip-rule="evenodd" d="M21.8536 10.6724L20.4219 9.15517C20.2267 8.94828 19.9013 8.94828 19.7061 9.15517L13.2223 16.5L10.359 13.4655C10.1638 13.2586 9.8384 13.2586 9.64317 13.4655L8.14642 15.0517C7.95119 15.2586 7.95119 15.6034 8.14642 15.8103L11.4653 19.3276L12.897 20.8448C13.0922 21.0517 13.4176 21.0517 13.6128 20.8448L21.8536 11.5C22.0488 11.2241 22.0488 10.8793 21.8536 10.6724Z" fill="#929EAE"/>
</g>
<g id="Group_2">
<rect id="Rectangle 44.2" x="69" y="9" width="12" height="12" fill="#D9DEE4"/>
</g>
<g id="Group_3">
<path id="Vector_2" fill-rule="evenodd" clip-rule="evenodd" d="M51.8536 10.6724L50.4219 9.15517C50.2267 8.94828 49.9013 8.94828 49.7061 9.15517L43.2223 16.5L40.359 13.4655C40.1638 13.2586 39.8384 13.2586 39.6432 13.4655L38.1464 15.0517C37.9512 15.2586 37.9512 15.6034 38.1464 15.8103L41.4653 19.3276L42.897 20.8448C43.0922 21.0517 43.4176 21.0517 43.6128 20.8448L51.8536 11.5C52.0488 11.2241 52.0488 10.8793 51.8536 10.6724Z" fill="white"/>
</g>
<g id="Group_4">
<path id="Vector_3" fill-rule="evenodd" clip-rule="evenodd" d="M111.854 10.6724L110.422 9.15517C110.227 8.94828 109.901 8.94828 109.706 9.15517L103.222 16.5L100.359 13.4655C100.164 13.2586 99.8384 13.2586 99.6432 13.4655L98.1464 15.0517C97.9512 15.2586 97.9512 15.6034 98.1464 15.8103L101.465 19.3276L102.897 20.8448C103.092 21.0517 103.418 21.0517 103.613 20.8448L111.854 11.5C112.049 11.2241 112.049 10.8793 111.854 10.6724Z" fill="#CDD6E1"/>
</g>
</g>
</svg>
