<svg width="92" height="33" viewBox="0 0 92 33" fill="none" xmlns="http://www.w3.org/2000/svg">
<path d="M0.1 21.5H3V32.7H0.1V21.5ZM1.5 20.5C0.7 20.5 0 19.8 0 19C0 18.2 0.7 17.4 1.5 17.4C2.3 17.4 3 18.1 3 19C3 19.9 2.4 20.5 1.5 20.5Z" fill="#63626C"/>
<path d="M12.1 32.7V26C12.1 24.8 12 23.5 10.5 23.5C9.7 23.5 8.6 23.9 7.9 24.3V32.8H5V21.5H7.9V22.6C8.9 21.9 10.5 21.1 11.7 21.1C14 21.1 15 22.8 15 25V32.6H12.1V32.7Z" fill="#63626C"/>
<path d="M42.1 23.6C41.3 23.7 40.3 24.2 39.6 24.6V32.7H36.7V21.5H39.6V22.8C40.6 22.1 42.2 21.5 43.4 21.5V23.6C43.4 23.6 42.7 23.5 42.1 23.6Z" fill="#63626C"/>
<path d="M29.6 23.2C27.5 23.2 26.8 25.2 26.8 27.1C26.8 28.9 27.4 31.2 29.6 31.2C31.8 31.2 32.4 29 32.4 27.1C32.5 25.2 31.7 23.2 29.6 23.2ZM29.6 33C26 33 24 30.7 24 27C24 23.2 26 21.2 29.7 21.2C33.3 21.2 35.4 23.4 35.4 27C35.3 30.7 33.3 33 29.6 33Z" fill="#63626C"/>
<path d="M58.4 32.5V25.8C58.4 24.6 58.1 23.3 56.7 23.3C55.9 23.3 55.1 23.7 54.4 24.1C54.5 24.4 54.5 24.7 54.5 25V32.6H51.6V25.9C51.6 24.7 51.4 23.4 50 23.4C49.3 23.4 48.4 23.8 47.7 24.2V32.7H44.8V21.4H47.7V22.5C48.6 21.8 50.1 21 51.3 21C52.5 21 53.5 21.5 54.1 22.7C55.1 22 56.7 21 58 21C60.3 21 61.3 22.7 61.3 24.9V32.5H58.4Z" fill="#63626C"/>
<path d="M65.5 29.4C65.5 30.4 66.1 31.1 67.1 31.1C68.3 31.1 69.4 30.1 69.4 28.8V27.2C68.1 27.3 65.5 27.8 65.5 29.4ZM69.6 31.1C68.8 32.2 67.4 33 66 33C64.2 33 62.7 31.8 62.7 29.8C62.7 26.2 66.6 25.7 69.4 25.6V25C69.4 23.7 68.4 23.1 67.2 23.1C66.1 23.1 64.9 23.3 63.9 23.6V22.4C65.1 21.7 66.4 21.2 67.8 21.2C70 21.2 72.2 22.2 72.2 24.7V32.7H69.6C69.6 32.7 69.6 31.1 69.6 31.1Z" fill="#63626C"/>
<path d="M22.5 19.2C22.9 19.2 23.2 19.2 23.6 19.3V18C22.9 17.6 22.1 17.4 21.3 17.4C18.7 17.4 17.7 19.2 17.7 21.6H16.4V23.5H17.7V32.7H20.6V23.5H23.6V21.6H20.6C20.6 20.1 20.9 19.2 22.5 19.2Z" fill="#63626C"/>
<path d="M82 30L87 25L92 30H82Z" fill="#63626C"/>
<path d="M0.1 4.2H3V15.4H0.1V4.2ZM1.5 3.1C0.7 3.1 0 2.4 0 1.6C0 0.8 0.7 0 1.5 0C2.3 0 3 0.7 3 1.6C3 2.5 2.4 3.1 1.5 3.1Z" fill="#63626C"/>
<path d="M12.1 15.3V8.6C12.1 7.4 12 6.1 10.5 6.1C9.7 6.1 8.6 6.5 7.9 6.9V15.4H5V4.2H7.9V5.3C8.9 4.6 10.5 3.8 11.7 3.8C14 3.8 15 5.5 15 7.7V15.3H12.1Z" fill="#63626C"/>
<path d="M42.1 6.2C41.3 6.3 40.3 6.8 39.6 7.2V15.3H36.7V4.2H39.6V5.5C40.6 4.8 42.2 4.2 43.4 4.2V6.3C43.4 6.3 42.7 6.2 42.1 6.2Z" fill="#63626C"/>
<path d="M29.6 5.8C27.5 5.8 26.8 7.8 26.8 9.7C26.8 11.5 27.4 13.8 29.6 13.8C31.8 13.8 32.4 11.6 32.4 9.7C32.5 7.9 31.7 5.8 29.6 5.8ZM29.6 15.6C25.9 15.6 23.9 13.3 23.9 9.6C23.9 5.8 25.9 3.8 29.6 3.8C33.2 3.8 35.3 6 35.3 9.6C35.3 13.4 33.3 15.6 29.6 15.6Z" fill="#63626C"/>
<path d="M58.4 15.3V8.6C58.4 7.4 58.1 6.1 56.7 6.1C55.9 6.1 55.1 6.5 54.4 6.9C54.5 7.2 54.5 7.5 54.5 7.8V15.4H51.6V8.6C51.6 7.4 51.4 6.1 50 6.1C49.3 6.1 48.4 6.5 47.7 6.9V15.4H44.8V4.2H47.7V5.3C48.6 4.6 50.1 3.8 51.3 3.8C52.5 3.8 53.5 4.3 54.1 5.5C55.1 4.8 56.7 3.8 58 3.8C60.3 3.8 61.3 5.5 61.3 7.7V15.3H58.4Z" fill="#63626C"/>
<path d="M65.5 12.1C65.5 13.1 66.1 13.8 67.1 13.8C68.3 13.8 69.4 12.8 69.4 11.5V9.9C68.1 9.9 65.5 10.4 65.5 12.1ZM69.6 13.7C68.8 14.8 67.4 15.6 66 15.6C64.2 15.6 62.7 14.4 62.7 12.4C62.7 8.8 66.6 8.3 69.4 8.2V7.6C69.4 6.3 68.4 5.7 67.2 5.7C66.1 5.7 64.9 5.9 63.9 6.2V5C65.1 4.3 66.4 3.8 67.8 3.8C70 3.8 72.2 4.8 72.2 7.3V15.3H69.6C69.6 15.3 69.6 13.7 69.6 13.7Z" fill="#63626C"/>
<path d="M22.5 1.8C22.9 1.8 23.2 1.8 23.6 1.9V0.6C22.9 0.2 22.1 0 21.3 0C18.7 0 17.7 1.8 17.7 4.2H16.4V6.1H17.7V15.3H20.6V6.1H23.6V4.2H20.6C20.6 2.8 20.9 1.8 22.5 1.8Z" fill="#63626C"/>
<path d="M92 7L87 12L82 7H92Z" fill="#63626C"/>
</svg>
