<svg width="38" height="43" viewBox="0 0 38 43" version="1.1" xmlns="http://www.w3.org/2000/svg" xmlns:xlink="http://www.w3.org/1999/xlink">
<title>SAVE</title>
<desc>Created using Figma</desc>
<g id="Canvas" transform="translate(-888 -588)">
<clipPath id="clip-0" clip-rule="evenodd">
<path d="M 888 588L 926 588L 926 631L 888 631L 888 588Z" fill="#FFFFFF"/>
</clipPath>
<g id="SAVE" clip-path="url(#clip-0)">
<g id="Group">
<g id="Union">
<use xlink:href="#path0_fill" transform="translate(900.611 597)" fill="#FFFFFF"/>
</g>
<g id="Union">
<use xlink:href="#path1_fill" transform="translate(899 610.027)" fill="#FFFFFF"/>
</g>
</g>
</g>
</g>
<defs>
<path id="path0_fill" d="M 5.64197 0C 5.04197 0 4.44197 0.6 4.44197 1.2L 4.44197 9L 1.84429 6.42426C 1.60997 6.18995 1.23006 6.18995 0.99576 6.42426L 0.17574 7.24428C -0.05858 7.47859 -0.05858 7.85849 0.17574 8.0928C 1.74819 9.66524 3.89668 11.8464 5.46913 13.4189C 5.58853 13.5383 5.73264 13.5969 5.88912 13.5946C 6.04555 13.5968 6.18976 13.5382 6.30912 13.4189C 7.87962 11.8484 10.0855 9.66617 11.6589 8.09281C 11.8932 7.8585 11.8932 7.47859 11.6589 7.24428L 10.8389 6.42426C 10.6046 6.18995 10.2247 6.18995 9.99036 6.42426L 7.38912 9L 7.38912 1.2C 7.38912 0.6 6.78913 0 6.30912 0L 5.64197 0Z"/>
<path id="path1_fill" d="M 0 0.600007C 0 0.268632 0.268634 7.31171e-06 0.6 7.31171e-06L 1.4361 1.71063e-06C 1.76747 1.71063e-06 2.03611 0.268627 2.03611 0.600002C 2.03611 0.600002 2.03612 2.51929 2.03612 3.41929C 2.03612 3.75066 2.30475 4.01929 2.63612 4.01929C 5.93612 4.01929 11.781 4.01929 12.381 4.01929C 12.981 4.01929 12.981 3.41929 12.981 3.41929L 12.981 0.600002C 12.981 0.268627 13.2496 1.71063e-06 13.581 1.71063e-06L 14.4 7.31171e-06C 14.7314 7.31171e-06 15 0.268632 15 0.600007C 15 2.20001 15 4.16024 15 4.76024C 15 5.36024 14.4 5.96024 13.8 5.96024C 13.2 5.96024 1.80002 5.96024 1.20002 5.96024C 0.600015 5.96024 1.52588e-05 5.36024 1.52588e-05 4.76024C 1.52588e-05 4.16024 0 2.20001 0 0.600007Z"/>
</defs>
</svg>
