<svg width="50" height="50" viewBox="0 0 50 50" fill="none" xmlns="http://www.w3.org/2000/svg">
<g id="SEARCH-GO">
<path id="Union" d="M10.0503 2.13388C9.5621 1.64572 9.5621 0.854279 10.0503 0.366119C10.5384 -0.12204 11.3299 -0.12204 11.818 0.366119L19.9498 8.49786C20.2454 8.79346 20.3619 9.20026 20.2996 9.58362C20.3619 9.96695 20.2454 10.3738 19.9498 10.6694L11.818 18.8011C11.3299 19.2893 10.5384 19.2893 10.0503 18.8011C9.5621 18.313 9.5621 17.5215 10.0503 17.0334L16.4822 10.6014L1 10.6014C0.447723 10.6014 0 10.1537 0 9.60141C0 9.04913 0.447723 8.60141 1 8.60141L16.5178 8.60144L10.0503 2.13388Z" transform="translate(14.6672 15.3514)" fill="white"/>
</g>
</svg>
