<svg width="64" height="40" viewBox="0 0 64 40" fill="none" xmlns="http://www.w3.org/2000/svg">
<g id="SEARCH-ICON">
<g id="Group 2">
<g id="Group">
<path id="Union" fill-rule="evenodd" clip-rule="evenodd" d="M17.6538 8.5C17.6538 12.0898 14.7437 15 11.1538 15C7.56396 15 4.65381 12.0898 4.65381 8.5C4.65381 4.91016 7.56396 2 11.1538 2C14.7437 2 17.6538 4.91016 17.6538 8.5ZM19.6538 8.5C19.6538 13.1944 15.8482 17 11.1538 17C9.50525 17 7.96634 16.5307 6.66333 15.7184L2.13388 20.2478C1.64572 20.736 0.854279 20.736 0.366119 20.2478C-0.12204 19.7597 -0.12204 18.9682 0.366119 18.4801L4.75308 14.0931C3.44589 12.5984 2.65381 10.6417 2.65381 8.5C2.65381 3.80557 6.45938 0 11.1538 0C15.8482 0 19.6538 3.80557 19.6538 8.5Z" transform="translate(22.3462 10)" fill="white" fill-opacity="0.9"/>
</g>
<g id="Group_2">
</g>
</g>
</g>
</svg>
