<svg width="34" height="102" viewBox="0 0 34 102" fill="none" xmlns="http://www.w3.org/2000/svg">
<g id="SHOWMEMORE" clip-path="url(#clip0)">
<g id="Group">
<circle id="Ellipse 20" cx="1.75" cy="1.75" r="1.75" transform="translate(9.25 86.75) rotate(-90)" fill="white" fill-opacity="0.8"/>
<circle id="Ellipse 20_2" cx="1.75" cy="1.75" r="1.75" transform="translate(15.25 86.75) rotate(-90)" fill="white" fill-opacity="0.8"/>
<circle id="Ellipse 20_3" cx="1.75" cy="1.75" r="1.75" transform="translate(21.25 86.75) rotate(-90)" fill="white" fill-opacity="0.8"/>
</g>
<g id="Group_2">
<circle id="Ellipse 20_4" cx="1.75" cy="1.75" r="1.75" transform="translate(9.25 52.75) rotate(-90)" fill="#908EA9" fill-opacity="0.8"/>
<circle id="Ellipse 20_5" cx="1.75" cy="1.75" r="1.75" transform="translate(15.25 52.75) rotate(-90)" fill="#908EA9" fill-opacity="0.8"/>
<circle id="Ellipse 20_6" cx="1.75" cy="1.75" r="1.75" transform="translate(21.25 52.75) rotate(-90)" fill="#908EA9" fill-opacity="0.8"/>
</g>
<g id="Group_3">
<path id="Union" fill-rule="evenodd" clip-rule="evenodd" d="M10.6944 9.9603C11.0849 9.56979 11.0849 8.93661 10.6944 8.54611L7.64198 5.49368L10.6945 2.44119C11.085 2.05069 11.085 1.41751 10.6945 1.02701L9.96034 0.292877C9.56984 -0.0976258 8.93666 -0.0976257 8.54616 0.292877L5.49367 3.34537L2.44124 0.292939C2.05067 -0.0976251 1.41756 -0.097625 1.02699 0.292939L0.292923 1.02701C-0.097641 1.41757 -0.097641 2.05069 0.292923 2.44125L3.34535 5.49368L0.292985 8.54605C-0.0975793 8.93662 -0.0975793 9.56973 0.292985 9.9603L1.02705 10.6944C1.41756 11.0849 2.05074 11.0849 2.4413 10.6944L5.49367 7.642L8.5461 10.6944C8.9366 11.0849 9.56978 11.0849 9.96028 10.6944L10.6944 9.9603Z" transform="translate(22.5 22.5793) rotate(-180)" fill="white" fill-opacity="0.65"/>
</g>
</g>
<defs>
<clipPath id="clip0">
<rect width="34" height="102" fill="white"/>
</clipPath>
</defs>
</svg>
