<svg width="60" height="32" viewBox="0 0 60 32" fill="none" xmlns="http://www.w3.org/2000/svg">
<g id="SHOW-MORE-LESS">
<rect id="Rectangle 4" width="2" height="14" rx="1" transform="translate(54 15) rotate(90)" fill="white" fill-opacity="0.9"/>
<path id="Union" fill-rule="evenodd" clip-rule="evenodd" d="M7 14C7.55228 14 8 13.5523 8 13V8H13C13.5523 8 14 7.55228 14 7C14 6.44772 13.5523 6 13 6H8V1C8 0.447716 7.55228 0 7 0C6.44772 0 6 0.447716 6 1V6H1C0.447716 6 0 6.44772 0 7C0 7.55228 0.447716 8 1 8H6V13C6 13.5523 6.44772 14 7 14Z" transform="translate(8 9)" fill="white" fill-opacity="0.9"/>
</g>
</svg>
