<svg width="30" height="30" viewBox="0 0 30 30" fill="none" xmlns="http://www.w3.org/2000/svg">
<path d="M7 6.00628H15.2754L23.0078 6V11.7971H22.4248C22.4248 10.6377 22.0978 9.73333 21.2687 8.89855C20.6998 8.32582 19.5318 7.97101 17.7613 7.95941L17.0039 7.95941V19.6328C17.0039 20.6763 17.1075 21.3024 17.2112 21.6154C17.3148 21.9285 17.5221 22.2415 17.833 22.3458C18.2475 22.5545 18.6621 22.6589 19.2839 22.6589L20.007 22.6667V23.9884L15.2754 24.0063L10.0083 24.0056V22.6838L10.7589 22.673C11.3807 22.673 11.7952 22.5686 12.2098 22.3599C12.5207 22.2556 12.7279 21.9425 12.8316 21.6295C12.9352 21.3164 13.0389 20.6903 13.0389 19.6469L13 7.9657H12.2465C10.476 7.97729 9.30798 8.3321 8.73913 8.90483C7.91004 9.73961 7.58297 10.644 7.58297 11.8034H7V6.00628Z" fill="#8D97A4"/>
</svg>
